# xmcd
#
# Track frame offsets:
#	180
#	14894
#	26484
#	39816
#	54015
#	66124
#	80176
#	94592
#	111800
#	124148
#	140651
#	153536
#	173860
#
# Disc length: 2566 seconds
#
# Revision: 0
# Processed by: cddbd v1.5.2PL0 Copyright (c) Steve Scherf et al.
# Submitted via: EasyCDDAExtractor 10.0.6.1
#
DISCID=aa0a040d
DTITLE=Earl and Charlene Montgomery - Christian Country
DYEAR=1999
DGENRE=Gospel
TTITLE0=We Oughty Be Ashamed
TTITLE1=In A Gospel Way
TTITLE2=Mama Was A Preacherman
TTITLE3=We're Gonna Hold On
TTITLE4=Small Time Laboring Man
TTITLE5=Living For Jesus, Praying For Jesus
TTITLE6=A Man Can Be Drunk, But A Drunk Can't Be A Man
TTITLE7=All Our Favorite Songs
TTITLE8=Hallelujah Week End
TTITLE9=I Know You By Heart
TTITLE10=Lord, You've Been Mighty Good To Me
TTITLE11=I've Met The Man
TTITLE12=Andrea
EXTD=
EXTT0=
EXTT1=
EXTT2=
EXTT3=
EXTT4=
EXTT5=
EXTT6=
EXTT7=
EXTT8=
EXTT9=
EXTT10=
EXTT11=
EXTT12=
PLAYORDER=
